<?xml version="1.0" standalone="no"?> <!DOCTYPE svg PUBLIC "-//W3C//DTD SVG 20010904//EN" "http://www.w3.org/TR/2001/REC-SVG-20010904/DTD/svg10.dtd"> <svg version="1.0" xmlns="http://www.w3.org/2000/svg" width="256.000000pt" height="256.000000pt" viewBox="0 0 256.000000 256.000000" preserveAspectRatio="xMidYMid meet"> <g transform="translate(0.000000,256.000000) scale(0.100000,-0.100000)" fill="#000000" stroke="none"> <path d="M1048 2544 c-261 -47 -496 -173 -685 -367 -106 -109 -167 -193 -228 -313 -93 -181 -135 -365 -135 -584 0 -364 127 -668 383 -917 109 -106 193 -167 313 -228 181 -93 365 -135 584 -135 219 0 403 42 584 135 120 61 204 122 313 228 197 192 321 426 368 693 19 112 19 336 0 448 -33 186 -112 375 -221 527 -67 92 -213 237 -305 302 -144 102 -336 181 -515 212 -108 19 -350 18 -456 -1z m499 -258 c246 -68 458 -221 596 -428 71 -106 110 -192 145 -316 24 -87 27 -114 27 -262 0 -148 -3 -175 -27 -262 -35 -124 -74 -210 -145 -316 -139 -209 -350 -360 -601 -430 -87 -24 -114 -27 -262 -27 -148 0 -175 3 -260 27 -253 71 -464 221 -603 430 -71 106 -110 192 -145 316 -24 87 -27 114 -27 262 0 148 3 175 27 262 35 124 74 210 145 316 134 202 352 361 582 424 122 33 159 37 311 33 117 -3 163 -8 237 -29z"/> <path d="M868 1734 c-50 -27 -73 -105 -47 -157 6 -12 72 -84 147 -159 l137 -138 -137 -137 c-145 -148 -158 -165 -158 -213 0 -67 53 -120 120 -120 48 0 65 13 213 158 l137 137 138 -137 c147 -145 164 -158 212 -158 67 0 120 53 120 120 0 48 -13 65 -158 213 l-137 137 137 138 c145 147 158 164 158 212 0 67 -53 120 -120 120 -48 0 -65 -13 -212 -158 l-138 -137 -137 137 c-76 75 -148 141 -160 147 -30 15 -83 13 -115 -5z"/> </g> </svg>